# 3ds Max Wavefront OBJ Exporter v0.97b - (c)2007 guruware
# File Created: 01.05.2012 13:07:54

mtllib Models/pill.mtl

#
# object Capsule001
#

v  0.0000 8.9583 -2.8910
v  1.5729 8.5964 -2.6750
v  0.9807 7.9661 -3.7309
v  -0.3500 7.8104 -3.9917
v  -1.4171 8.2466 -3.2610
v  -1.4171 8.9462 -2.0890
v  -0.3500 9.3824 -1.3583
v  0.9807 9.2267 -1.6191
v  2.7243 7.6077 -2.0848
v  1.6986 6.5160 -3.9137
v  -0.6062 6.2464 -4.3654
v  -2.4545 7.0019 -3.0998
v  -2.4545 8.2136 -1.0699
v  -0.6062 8.9691 0.1958
v  1.6986 8.6994 -0.2559
v  3.1457 6.2572 -1.2786
v  1.9613 4.9966 -3.3904
v  -0.7000 4.6852 -3.9120
v  -2.8342 5.5576 -2.4506
v  -2.8342 6.9568 -0.1067
v  -0.7000 7.8291 1.3548
v  1.9613 7.5178 0.8332
v  3.1457 4.4791 -0.2173
v  1.9613 3.2185 -2.3291
v  -0.7000 2.9072 -2.8507
v  -2.8342 3.7796 -1.3892
v  -2.8342 5.1787 0.9547
v  -0.7000 6.0511 2.4161
v  1.9613 5.7397 1.8945
v  3.1457 2.7011 0.8441
v  1.9613 1.4405 -1.2677
v  -0.7000 1.1292 -1.7893
v  -2.8342 2.0015 -0.3279
v  -2.8342 3.4007 2.0161
v  -0.7000 4.2731 3.4775
v  1.9613 3.9617 2.9559
v  2.7243 1.3506 1.6503
v  1.6986 0.2588 -0.1786
v  -0.6062 -0.0108 -0.6303
v  -2.4545 0.7447 0.6353
v  -2.4545 1.9564 2.6652
v  -0.6062 2.7119 3.9309
v  1.6986 2.4423 3.4792
v  1.5729 0.3619 2.2404
v  0.9807 -0.2684 1.1845
v  -0.3500 -0.4241 0.9237
v  -1.4171 0.0121 1.6545
v  -1.4171 0.7117 2.8264
v  -0.3500 1.1479 3.5571
v  0.9807 0.9922 3.2963
v  0.0000 0.0000 2.4565
# 51 vertices

vn 0.0000 0.8587 -0.5126
vn 0.5510 0.7165 -0.4277
vn 0.3435 0.4957 -0.7976
vn -0.1226 0.4412 -0.8890
vn -0.4964 0.5940 -0.6330
vn -0.4964 0.8391 -0.2224
vn -0.1226 0.9919 0.0335
vn 0.3435 0.9374 -0.0578
vn 0.8820 0.4046 -0.2415
vn 0.5499 0.0511 -0.8336
vn -0.1963 -0.0362 -0.9799
vn -0.7947 0.2084 -0.5701
vn -0.7947 0.6007 0.0871
vn -0.1963 0.8453 0.4969
vn 0.5499 0.7580 0.3506
vn 0.9920 0.1083 -0.0646
vn 0.6185 -0.2893 -0.7306
vn -0.2207 -0.3874 -0.8951
vn -0.8938 -0.1123 -0.4342
vn -0.8938 0.3289 0.3050
vn -0.2207 0.6040 0.7658
vn 0.6185 0.5058 0.6013
vn 1.0000 0.0000 0.0000
vn 0.6235 -0.4007 -0.6713
vn -0.2225 -0.4997 -0.8371
vn -0.9010 -0.2224 -0.3726
vn -0.9010 0.2224 0.3726
vn -0.2225 0.4997 0.8371
vn 0.6235 0.4007 0.6713
vn 0.9920 -0.1083 0.0646
vn 0.6185 -0.5058 -0.6013
vn -0.2207 -0.6040 -0.7658
vn -0.8938 -0.3289 -0.3050
vn -0.8938 0.1123 0.4342
vn -0.2207 0.3874 0.8951
vn 0.6185 0.2893 0.7306
vn 0.8820 -0.4046 0.2415
vn 0.5499 -0.7580 -0.3506
vn -0.1963 -0.8453 -0.4969
vn -0.7947 -0.6007 -0.0871
vn -0.7947 -0.2084 0.5701
vn -0.1963 0.0362 0.9799
vn 0.5499 -0.0511 0.8336
vn 0.5510 -0.7165 0.4277
vn 0.3435 -0.9374 0.0578
vn -0.1226 -0.9919 -0.0335
vn -0.4964 -0.8391 0.2224
vn -0.4964 -0.5940 0.6330
vn -0.1226 -0.4412 0.8890
vn 0.3435 -0.4957 0.7976
vn 0.0000 -0.8587 0.5126
# 51 vertex normals

vt 0.5000 0.5000 0.0000
vt 0.7500 0.5000 0.0000
vt 0.6559 0.6955 0.0000
vt 0.4444 0.7437 0.0000
vt 0.2748 0.6085 0.0000
vt 0.2748 0.3915 0.0000
vt 0.4444 0.2563 0.0000
vt 0.6559 0.3045 0.0000
vt 0.9330 0.5000 0.0000
vt 0.7700 0.8385 0.0000
vt 0.4036 0.9222 0.0000
vt 0.1099 0.6879 0.0000
vt 0.1099 0.3121 0.0000
vt 0.4036 0.0778 0.0000
vt 0.7700 0.1615 0.0000
vt 1.0000 0.5000 0.0000
vt 0.8117 0.8909 0.0000
vt 0.3887 0.9875 0.0000
vt 0.0495 0.7169 0.0000
vt 0.0495 0.2831 0.0000
vt 0.3887 0.0125 0.0000
vt 0.8117 0.1091 0.0000
vt 0.0000 1.0000 0.0000
vt 0.0000 0.5000 0.0000
vt 0.1429 0.5000 0.0000
vt 0.1429 1.0000 0.0000
vt 0.2857 0.5000 0.0000
vt 0.2857 1.0000 0.0000
vt 0.4286 0.5000 0.0000
vt 0.4286 1.0000 0.0000
vt 0.5714 0.5000 0.0000
vt 0.5714 1.0000 0.0000
vt 0.7143 0.5000 0.0000
vt 0.7143 1.0000 0.0000
vt 0.8571 0.5000 0.0000
vt 0.8571 1.0000 0.0000
vt 1.0000 1.0000 0.0000
vt 0.0000 0.0000 0.0000
vt 0.1429 0.0000 0.0000
vt 0.2857 0.0000 0.0000
vt 0.4286 0.0000 0.0000
vt 0.5714 0.0000 0.0000
vt 0.7143 0.0000 0.0000
vt 0.8571 0.0000 0.0000
vt 1.0000 0.0000 0.0000
# 45 texture coords

g Capsule001
usemtl wire_255255255
s 4
f 1/1/1 2/2/2 3/3/3 
f 1/1/1 3/3/3 4/4/4 
f 1/1/1 4/4/4 5/5/5 
f 1/1/1 5/5/5 6/6/6 
f 1/1/1 6/6/6 7/7/7 
f 1/1/1 7/7/7 8/8/8 
f 1/1/1 8/8/8 2/2/2 
f 2/2/2 9/9/9 10/10/10 
f 2/2/2 10/10/10 3/3/3 
f 3/3/3 10/10/10 11/11/11 
f 3/3/3 11/11/11 4/4/4 
f 4/4/4 11/11/11 12/12/12 
f 4/4/4 12/12/12 5/5/5 
f 5/5/5 12/12/12 13/13/13 
f 5/5/5 13/13/13 6/6/6 
f 6/6/6 13/13/13 14/14/14 
f 6/6/6 14/14/14 7/7/7 
f 7/7/7 14/14/14 15/15/15 
f 7/7/7 15/15/15 8/8/8 
f 8/8/8 15/15/15 9/9/9 
f 8/8/8 9/9/9 2/2/2 
f 9/9/9 16/16/16 17/17/17 
f 9/9/9 17/17/17 10/10/10 
f 10/10/10 17/17/17 18/18/18 
f 10/10/10 18/18/18 11/11/11 
f 11/11/11 18/18/18 19/19/19 
f 11/11/11 19/19/19 12/12/12 
f 12/12/12 19/19/19 20/20/20 
f 12/12/12 20/20/20 13/13/13 
f 13/13/13 20/20/20 21/21/21 
f 13/13/13 21/21/21 14/14/14 
f 14/14/14 21/21/21 22/22/22 
f 14/14/14 22/22/22 15/15/15 
f 15/15/15 22/22/22 16/16/16 
f 15/15/15 16/16/16 9/9/9 
f 16/23/16 23/24/23 24/25/24 
f 16/23/16 24/25/24 17/26/17 
f 17/26/17 24/25/24 25/27/25 
f 17/26/17 25/27/25 18/28/18 
f 18/28/18 25/27/25 26/29/26 
f 18/28/18 26/29/26 19/30/19 
f 19/30/19 26/29/26 27/31/27 
f 19/30/19 27/31/27 20/32/20 
f 20/32/20 27/31/27 28/33/28 
f 20/32/20 28/33/28 21/34/21 
f 21/34/21 28/33/28 29/35/29 
f 21/34/21 29/35/29 22/36/22 
f 22/36/22 29/35/29 23/16/23 
f 22/36/22 23/16/23 16/37/16 
f 23/24/23 30/38/30 31/39/31 
f 23/24/23 31/39/31 24/25/24 
f 24/25/24 31/39/31 32/40/32 
f 24/25/24 32/40/32 25/27/25 
f 25/27/25 32/40/32 33/41/33 
f 25/27/25 33/41/33 26/29/26 
f 26/29/26 33/41/33 34/42/34 
f 26/29/26 34/42/34 27/31/27 
f 27/31/27 34/42/34 35/43/35 
f 27/31/27 35/43/35 28/33/28 
f 28/33/28 35/43/35 36/44/36 
f 28/33/28 36/44/36 29/35/29 
f 29/35/29 36/44/36 30/45/30 
f 29/35/29 30/45/30 23/16/23 
f 30/16/30 37/9/37 38/10/38 
f 30/16/30 38/10/38 31/17/31 
f 31/17/31 38/10/38 39/11/39 
f 31/17/31 39/11/39 32/18/32 
f 32/18/32 39/11/39 40/12/40 
f 32/18/32 40/12/40 33/19/33 
f 33/19/33 40/12/40 41/13/41 
f 33/19/33 41/13/41 34/20/34 
f 34/20/34 41/13/41 42/14/42 
f 34/20/34 42/14/42 35/21/35 
f 35/21/35 42/14/42 43/15/43 
f 35/21/35 43/15/43 36/22/36 
f 36/22/36 43/15/43 37/9/37 
f 36/22/36 37/9/37 30/16/30 
f 37/9/37 44/2/44 45/3/45 
f 37/9/37 45/3/45 38/10/38 
f 38/10/38 45/3/45 46/4/46 
f 38/10/38 46/4/46 39/11/39 
f 39/11/39 46/4/46 47/5/47 
f 39/11/39 47/5/47 40/12/40 
f 40/12/40 47/5/47 48/6/48 
f 40/12/40 48/6/48 41/13/41 
f 41/13/41 48/6/48 49/7/49 
f 41/13/41 49/7/49 42/14/42 
f 42/14/42 49/7/49 50/8/50 
f 42/14/42 50/8/50 43/15/43 
f 43/15/43 50/8/50 44/2/44 
f 43/15/43 44/2/44 37/9/37 
f 44/2/44 51/1/51 45/3/45 
f 45/3/45 51/1/51 46/4/46 
f 46/4/46 51/1/51 47/5/47 
f 47/5/47 51/1/51 48/6/48 
f 48/6/48 51/1/51 49/7/49 
f 49/7/49 51/1/51 50/8/50 
f 50/8/50 51/1/51 44/2/44 
# 98 faces

